<svg width="24" height="23" viewBox="0 0 24 23" fill="none" xmlns="http://www.w3.org/2000/svg">
<g clip-path="url(#clip0_1_204)">
<path d="M16.8141 7.25465L10.5125 13.5563L7.07952 10.133L5.73121 11.4813L10.5125 16.2625L18.1625 8.61253L16.8141 7.25465ZM12.425 1.91878C7.14646 1.91878 2.86246 6.20278 2.86246 11.4813C2.86246 16.7598 7.14646 21.0438 12.425 21.0438C17.7035 21.0438 21.9875 16.7598 21.9875 11.4813C21.9875 6.20278 17.7035 1.91878 12.425 1.91878ZM12.425 19.1313C8.19833 19.1313 4.77496 15.7079 4.77496 11.4813C4.77496 7.25465 8.19833 3.83128 12.425 3.83128C16.6516 3.83128 20.075 7.25465 20.075 11.4813C20.075 15.7079 16.6516 19.1313 12.425 19.1313Z" fill="#4A4DE6"/>
</g>
<defs>
<clipPath id="clip0_1_204">
<rect width="22.95" height="22.95" fill="white" transform="translate(0.950012 0.0062561)"/>
</clipPath>
</defs>
</svg>
